HIERARCHY
ROOT Hips
{
	OFFSET 0.000000 0.000000 0.000000
	CHANNELS 6 Xposition Yposition Zposition Yrotation Xrotation Zrotation
	JOINT Chest
	{
		OFFSET 0.000000 -0.009281 11.569106
		CHANNELS 3 Yrotation Xrotation Zrotation
		JOINT Chest2
		{
			OFFSET -0.000000 0.016865 9.269641
			CHANNELS 3 Yrotation Xrotation Zrotation
			JOINT Chest3
			{
				OFFSET -0.000000 0.000001 8.374491
				CHANNELS 3 Yrotation Xrotation Zrotation
				JOINT Chest4
				{
					OFFSET -0.000000 0.000001 8.374493
					CHANNELS 3 Yrotation Xrotation Zrotation
					JOINT Neck
					{
						OFFSET -0.000000 0.000002 12.152554
						CHANNELS 3 Yrotation Xrotation Zrotation
						JOINT Head
						{
							OFFSET -0.000000 0.040101 7.802319
							CHANNELS 3 Yrotation Xrotation Zrotation
							End Site
							{
								OFFSET -0.000000 0.020947 14.853096
							}
						}
					}
					JOINT RightCollar
					{
						OFFSET 2.894404 0.000001 6.791374
						CHANNELS 3 Yrotation Xrotation Zrotation
						JOINT RightShoulder
						{
							OFFSET 13.574684 0.000001 0.000000
							CHANNELS 3 Yrotation Xrotation Zrotation
							JOINT RightElbow
							{
								OFFSET 23.923903 0.000002 0.000000
								CHANNELS 3 Yrotation Xrotation Zrotation
								JOINT RightWrist
								{
									OFFSET 19.846718 0.012767 0.000000
									CHANNELS 3 Yrotation Xrotation Zrotation
									End Site
									{
										OFFSET 14.973145 0.000001 0.000000
									}
								}
							}
						}
					}
					JOINT LeftCollar
					{
						OFFSET -2.894404 0.000001 6.791374
						CHANNELS 3 Yrotation Xrotation Zrotation
						JOINT LeftShoulder
						{
							OFFSET -13.574684 -0.000001 0.000000
							CHANNELS 3 Yrotation Xrotation Zrotation
							JOINT LeftElbow
							{
								OFFSET -23.923903 -0.000002 0.000000
								CHANNELS 3 Yrotation Xrotation Zrotation
								JOINT LeftWrist
								{
									OFFSET -19.846718 0.012763 0.000000
									CHANNELS 3 Yrotation Xrotation Zrotation
									End Site
									{
										OFFSET -14.973145 -0.000001 0.000000
									}
								}
							}
						}
					}
				}
			}
		}
	}
	JOINT RightHip
	{
		OFFSET 9.469263 0.004643 0.045487
		CHANNELS 3 Yrotation Xrotation Zrotation
		JOINT RightKnee
		{
			OFFSET 0.000000 0.002661 -40.478676
			CHANNELS 3 Yrotation Xrotation Zrotation
			JOINT RightAnkle
			{
				OFFSET 0.000000 0.049106 -35.224068
				CHANNELS 3 Yrotation Xrotation Zrotation
				JOINT RightToe
				{
					OFFSET -0.000001 12.539529 -6.151390
					CHANNELS 3 Yrotation Xrotation Zrotation
					End Site
					{
						OFFSET -0.000001 5.044994 -1.291870
					}
				}
			}
		}
	}
	JOINT LeftHip
	{
		OFFSET -9.469263 0.004641 0.045487
		CHANNELS 3 Yrotation Xrotation Zrotation
		JOINT LeftKnee
		{
			OFFSET 0.000000 0.002661 -40.478676
			CHANNELS 3 Yrotation Xrotation Zrotation
			JOINT LeftAnkle
			{
				OFFSET 0.000000 0.049106 -35.224068
				CHANNELS 3 Yrotation Xrotation Zrotation
				JOINT LeftToe
				{
					OFFSET -0.000001 12.539529 -6.151390
					CHANNELS 3 Yrotation Xrotation Zrotation
					End Site
					{
						OFFSET -0.000001 5.044994 -1.291870
					}
				}
			}
		}
	}
}
MOTION
Frames: 9
Frame Time: 0.016667
12.077813 4.805079 83.112923 -9.119747 -3.466086 -104.109322 -2.677409 -5.011156 9.831355 -1.122465 -2.275871 4.435076 -1.122465 -2.275872 4.435077 -0.825265 -1.715162 3.321700 8.412035 -26.071898 -6.359240 13.558833 -12.018188 -9.429838 11.023723 -4.192558 -11.842637 73.700275 -9.592596 27.527612 -10.620787 -54.310560 10.373606 -63.306455 22.407942 39.933278 -3.831630 -10.586704 -19.316106 -70.165762 26.069162 -39.370976 6.249726 13.938459 -6.468935 66.386871 6.398689 -65.751028 0.773738 -10.728953 -6.370308 1.593706 -7.624832 -1.375501 -1.762356 7.730358 -0.308869 -0.047038 -0.274359 -0.050362 1.917988 -13.227702 -3.347185 0.434474 -2.419568 -3.145587 -1.605252 6.015339 3.208419 -1.047917 -0.066720 0.039251 
12.029273 4.778440 83.098152 -9.172287 -3.584053 -104.571603 -2.699961 -4.975968 9.680903 -1.133674 -2.258981 4.372445 -1.133674 -2.258982 4.372444 -0.834027 -1.702456 3.274730 8.397911 -26.136335 -6.624368 13.475365 -12.122693 -9.909969 11.011707 -4.271348 -11.835925 73.628415 -9.352866 27.184670 -9.544755 -53.002299 8.184483 -63.141172 21.644941 39.332239 -3.917327 -10.841767 -19.337888 -70.496192 25.024763 -38.776005 6.343338 14.224868 -5.564976 66.614070 6.230892 -65.540351 0.811511 -10.685962 -6.283631 1.543779 -7.736851 -1.113124 -1.765240 7.739863 -0.217401 -0.059070 -0.275838 -0.050385 1.914488 -13.305174 -3.216016 0.436817 -2.525503 -2.997756 -1.409241 6.120631 3.365366 -0.987496 -0.047834 0.037242 
11.984525 4.757957 83.084099 -9.237902 -3.693268 -105.015586 -2.716095 -4.940911 9.506081 -1.141637 -2.242651 4.299732 -1.141638 -2.242651 4.299733 -0.840382 -1.690126 3.220210 8.367952 -26.205966 -6.900268 13.361952 -12.237288 -10.413137 10.986474 -4.370169 -11.789324 73.462714 -9.094714 26.875949 -8.455381 -51.370836 6.039164 -62.931205 20.789370 38.616896 -3.915098 -11.261177 -19.339173 -70.970781 23.906644 -38.477010 6.386303 14.664923 -4.680868 66.771547 5.983845 -64.907609 0.831258 -10.658875 -6.210191 1.501803 -7.848551 -0.836192 -1.764656 7.752519 -0.142527 -0.072078 -0.277641 -0.050848 1.893033 -13.397562 -3.114718 0.450426 -2.619844 -2.828116 -1.240490 6.212773 3.534564 -0.921559 -0.027506 0.034612 
11.943501 4.743849 83.069847 -9.294511 -3.802036 -105.448333 -2.726399 -4.923144 9.321566 -1.145712 -2.233515 4.221880 -1.145712 -2.233514 4.221879 -0.843785 -1.683151 3.161833 8.325297 -26.251376 -7.189124 13.222210 -12.307699 -10.940321 10.927696 -4.480025 -11.713731 73.300217 -8.844410 26.650263 -7.381865 -49.416869 3.904108 -62.784663 19.706651 37.456467 -3.934860 -11.573290 -19.330146 -71.387696 22.563521 -38.185566 6.331508 15.489295 -3.890241 66.915172 5.663000 -63.762883 0.853728 -10.631958 -6.147177 1.452827 -7.948344 -0.550728 -1.759652 7.762720 -0.078132 -0.080207 -0.280836 -0.050709 1.873478 -13.496197 -3.035138 0.463239 -2.683366 -2.655513 -1.084489 6.290603 3.685122 -0.857239 -0.012522 0.031264 
11.906158 4.730791 83.055641 -9.337851 -3.914439 -105.886770 -2.733611 -4.917972 9.144643 -1.148559 -2.229454 4.146718 -1.148559 -2.229453 4.146717 -0.846224 -1.679981 3.105466 8.286575 -26.270589 -7.498945 13.083609 -12.329794 -11.501995 10.826704 -4.478015 -11.657778 73.143963 -8.664578 26.434555 -6.454609 -47.208359 1.852016 -62.529569 18.402034 36.103096 -4.002075 -11.602547 -19.255191 -71.629457 20.834707 -37.664098 6.259880 16.469138 -3.188433 67.065976 5.342031 -62.441384 0.885359 -10.599386 -6.063638 1.397611 -8.040172 -0.299606 -1.748889 7.772125 0.001477 -0.084945 -0.284405 -0.049998 1.868515 -13.604785 -2.937018 0.459028 -2.708207 -2.467021 -0.943416 6.353957 3.791484 -0.790268 -0.003381 0.029752 
11.873148 4.715517 83.043350 -9.361120 -4.023787 -106.335520 -2.743064 -4.904459 8.989968 -1.153516 -2.221894 4.080983 -1.153516 -2.221894 4.080983 -0.850228 -1.674217 3.056170 8.272990 -26.276055 -7.842482 12.981525 -12.325601 -12.117085 10.717426 -4.481793 -11.654137 72.998357 -8.439949 26.250314 -5.726884 -44.659001 0.064276 -62.198168 17.153711 34.881038 -4.022904 -11.636470 -19.293589 -71.863822 19.084807 -37.133420 6.308936 17.175902 -2.455362 67.261210 5.186427 -61.387705 0.921579 -10.549688 -5.940319 1.340541 -8.131044 -0.103871 -1.731862 7.778996 0.104603 -0.089108 -0.283008 -0.049185 1.870818 -13.703990 -2.827430 0.445106 -2.719677 -2.253247 -0.831461 6.408366 3.877059 -0.714661 0.008934 0.031004 
11.841957 4.700109 83.034721 -9.385481 -4.124862 -106.784509 -2.759761 -4.886220 8.830363 -1.163181 -2.213553 4.012873 -1.163182 -2.213553 4.012874 -0.857781 -1.667893 3.005080 8.269260 -26.277476 -8.193772 12.895119 -12.314582 -12.743548 10.643404 -4.482873 -11.599540 72.782018 -8.088044 26.079643 -5.097466 -41.771682 -1.408777 -61.952131 16.150209 33.636073 -4.057283 -11.699051 -19.392408 -72.170203 17.415381 -36.714179 6.482245 17.675017 -1.688982 67.464278 5.009670 -60.593374 0.946654 -10.501492 -5.795068 1.289549 -8.219962 0.090302 -1.713310 7.775744 0.189505 -0.095896 -0.273764 -0.048194 1.871555 -13.795580 -2.729585 0.414352 -2.744534 -2.018639 -0.741899 6.459138 3.981412 -0.631102 0.028846 0.032237 
11.807903 4.690712 83.027786 -9.418953 -4.221428 -107.210720 -2.771196 -4.852046 8.644123 -1.170142 -2.199270 3.932808 -1.170141 -2.199270 3.932809 -0.863382 -1.657070 2.945046 8.249883 -26.281195 -8.537917 12.782778 -12.309947 -13.361073 10.586064 -4.515723 -11.501429 72.412074 -7.638564 25.978691 -4.605912 -39.143462 -2.612634 -61.780748 15.303575 32.310490 -4.099191 -11.802315 -19.492434 -72.558643 15.745541 -36.431618 6.629572 18.250146 -0.975290 67.598860 4.677008 -59.356844 0.959588 -10.458724 -5.634700 1.254077 -8.312209 0.255644 -1.696837 7.768777 0.270590 -0.101838 -0.262245 -0.048698 1.870290 -13.874155 -2.672288 0.378754 -2.798633 -1.777125 -0.669702 6.516781 4.094599 -0.547585 0.048543 0.033327 
11.775819 4.686220 83.020126 -9.458365 -4.317554 -107.607923 -2.755549 -4.825621 8.401343 -1.162233 -2.185521 3.826254 -1.162232 -2.185521 3.826255 -0.857919 -1.646500 2.865198 8.176601 -26.274406 -8.852137 12.580658 -12.290582 -13.936988 10.427552 -4.516546 -11.353947 71.946365 -7.233743 25.919948 -4.358330 -36.851893 -3.693174 -61.408428 14.291260 31.382336 -4.198933 -11.912473 -19.517942 -72.891253 13.935227 -36.172415 6.615595 18.954029 -0.446282 67.576102 4.381958 -57.190981 0.973786 -10.427097 -5.474446 1.218347 -8.399974 0.392711 -1.678245 7.766481 0.352056 -0.103088 -0.255542 -0.048719 1.867272 -13.929951 -2.620522 0.350889 -2.876653 -1.579263 -0.605083 6.582202 4.198603 -0.474622 0.053941 0.032700 
